<svg width="82" height="77" viewBox="0 0 82 77" fill="none" xmlns="http://www.w3.org/2000/svg">
<rect x="0.5" y="0.0643311" width="81" height="76.8713" rx="10" fill="#0E82C3"/>
<path d="M56.5035 28.0065C57.7445 28.8961 58.8428 29.702 59.9691 30.4568C60.0991 30.543 60.4456 30.3813 60.6265 30.2384C61.8115 29.3112 62.9811 28.357 64.1533 27.4135C64.3878 27.2248 64.6197 27.0388 64.9076 26.9175C63.7456 28.5915 62.2472 29.8799 60.6291 31.0956C61.414 32.4784 62.1886 33.8478 63.0474 35.36C65.2695 34.0284 67.4432 32.7237 69.6168 31.4218L69.7137 31.535C69.0486 32.0445 68.3962 32.5701 67.7158 33.0553C67.0201 33.5513 66.3041 34.0176 65.5855 34.4758C64.849 34.9449 64.0947 35.3842 63.3303 35.8479C63.6641 36.8641 64.189 37.6323 65.2032 37.8102C66.169 37.98 66.8469 38.3898 66.7806 39.6728C67.7439 39.1175 68.5797 38.6324 69.413 38.1499L69.5225 38.3224C69.0001 38.6755 68.5083 39.1014 67.9477 39.3601C67.0507 39.7753 66.6991 40.4195 66.6201 41.4546C66.5207 42.7619 66.1996 44.0477 65.9881 45.3442C65.9346 45.6812 65.9397 46.0316 65.8989 46.6381C67.8025 45.8106 69.5582 45.0477 71.5 44.204C69.813 45.6839 67.8891 46.2526 65.9575 47.1341C66.1639 47.5842 66.2888 48.0613 66.5589 48.4064C67.1578 49.1692 67.2495 50.0048 67.0354 50.9105C66.536 53.0131 65.323 54.6789 64.0081 56.2639C61.5108 59.2721 58.537 61.663 55.2191 63.5553C53.3487 64.6227 51.3916 65.5257 49.46 66.4746C48.1808 67.1026 46.8837 67.0406 45.5536 66.5797C44.519 66.2212 43.4436 65.9948 42.3835 65.7171C40.6711 65.2697 39.0682 65.8061 37.4526 66.3048C36.8487 66.4907 36.2167 66.6255 35.5924 66.6552C35.2458 66.6713 34.8075 66.5204 34.5501 66.2778C32.8453 64.6766 30.743 63.93 28.6611 63.151C27.2978 62.6415 25.8962 62.2561 24.5176 61.7924C24.0564 61.6361 23.6104 61.3719 23.4244 61.8841C23.0192 61.5202 22.6523 61.1185 22.2242 60.8139C20.4251 59.5309 19.2784 57.7168 18.4553 55.6493C18.2158 55.0482 17.8896 54.7867 17.2729 54.6061C15.4203 54.067 13.5983 53.4039 11.7788 52.7408C11.4093 52.606 11.0551 52.3176 10.7927 52.0049C10.6245 51.8055 10.6423 51.4335 10.5761 51.1397C10.8462 51.0884 11.1494 50.9294 11.3788 51.0076C12.7574 51.4685 14.1156 51.9995 15.4891 52.4766C16.1287 52.6977 16.7862 52.8567 17.5201 53.0697C17.3672 51.9861 17.2805 51.0291 17.0716 50.1019C17.0181 49.862 16.6027 49.6086 16.3173 49.552C14.4469 49.1665 12.709 48.4684 11.1112 47.3605C10.4971 46.9319 10.3849 46.3982 10.6015 45.4655C12.5917 47.064 14.6839 48.118 17.1608 48.1907L17.278 47.3174H17.3927L17.5379 48.4064C19.5128 48.4792 21.5107 48.5573 23.5085 48.622C23.6436 48.6274 23.8041 48.5412 23.9188 48.4495C25.1292 47.4549 26.597 46.9346 28.0291 46.9427C29.4205 46.9481 31.0794 46.6678 32.1242 48.2231C32.2006 48.3363 32.4427 48.3632 32.6058 48.3606C33.3448 48.3552 34.0864 48.3579 34.8177 48.2851C35.0267 48.2635 35.3809 48.0155 35.386 47.8565C35.4369 46.7594 35.4115 45.6596 35.4115 44.4709C34.2342 44.6218 33.1562 44.7512 32.0809 44.8941C27.5832 45.5006 23.0677 46.0397 18.547 45.4548C15.9402 45.1178 13.4811 44.0935 11.2182 42.6433C10.9022 42.4411 10.39 42.1689 10.7289 41.6541C11.0144 41.2174 11.4323 41.4195 11.8069 41.6702C15.0406 43.8455 18.6566 44.39 22.3924 44.4655C26.2453 44.5437 30.0575 44.169 33.8519 43.4978C34.0277 43.4681 34.2087 43.4816 34.3845 43.4493C35.0114 43.328 35.521 43.2417 35.9211 42.46C36.5098 41.3144 37.7304 40.929 38.9128 40.5731C40.3576 40.1365 41.7439 40.5462 43.1531 40.6783C43.2295 40.6864 43.3213 40.6864 43.3748 40.7322C44.8222 41.9317 46.2008 40.8373 47.6253 40.6729V37.3547C46.4531 37.6943 45.342 38.0339 44.2208 38.3385C39.7664 39.5542 35.2713 40.5893 30.6946 41.061C25.8045 41.5651 20.8863 41.7807 16.0191 40.778C14.9412 40.557 13.9066 40.0421 12.8873 39.5731C12.4771 39.3844 12.0337 39.0367 12.2605 38.228C12.686 38.3924 13.1371 38.4787 13.4913 38.7213C15.4305 40.0502 17.6526 39.9666 19.8135 40.2119C20.2849 40.2658 20.4608 40.0691 20.3996 39.565C20.3028 38.7375 20.1881 37.9046 20.1805 37.0743C20.1754 36.4921 19.9358 36.3411 19.4644 36.2845C18.254 36.139 17.0436 35.9934 15.8433 35.7832C15.247 35.678 14.6456 35.4894 14.1003 35.2198C13.8124 35.0769 13.6365 34.678 13.4097 34.395C13.7512 34.3087 14.1181 34.0985 14.4316 34.1631C15.5019 34.3788 16.5492 34.7211 17.6144 34.9583C18.4527 35.1443 19.309 35.2495 20.1779 35.3923C20.6468 33.8963 20.3487 31.9959 22.2802 31.3867C22.0101 32.7426 21.7502 34.058 21.4673 35.484C21.9235 35.5082 22.1936 35.5271 22.4663 35.5379C30.1518 35.8398 37.5724 34.182 44.9369 32.1091C48.084 31.2223 51.1546 30.101 54.0851 28.578C55.214 27.9904 55.2599 28.1817 54.6993 26.8879C54.0979 25.4943 53.5067 24.0953 52.8441 22.7341C52.3804 21.7852 51.5802 21.2461 50.5685 21.5777C48.6573 22.2084 47.5871 21.1464 46.6952 19.618C46.6034 19.4617 46.5372 19.2919 46.4607 19.1328C46.5372 19.0789 46.6009 19.0196 46.6136 19.0304C47.5463 19.7959 48.507 19.7825 49.618 19.4024C50.9865 18.9361 52.0593 19.5722 52.7753 20.9469C53.8048 22.9228 54.8573 24.8851 55.9046 26.8502C55.9887 27.0092 56.0983 27.1521 56.297 27.4566C57.5941 26.3973 58.9192 25.4458 60.094 24.319C61.2713 23.1896 62.2982 21.8823 63.422 20.6855C61.7758 23.6829 59.3906 25.9391 56.4907 28.0092L56.5035 28.0065ZM62.7416 48.3255C50.1812 52.1047 37.4883 55.625 24.1507 55.3663C24.064 56.2639 24.0105 57.0671 23.906 57.8623C23.8372 58.3853 23.9417 58.6899 24.4616 58.8974C25.5063 59.3152 26.518 59.8274 27.5424 60.2964C29.1121 61.0161 30.6615 61.7951 31.826 63.1644C32.4911 63.9462 33.2556 64.1079 34.1654 63.93C34.963 63.7736 35.7631 63.5984 36.5684 63.5068C38.1508 63.3289 39.6339 63.7332 41.089 64.3828C42.0599 64.8168 43.0792 65.3155 44.0985 65.3802C45.0974 65.4422 46.1524 65.081 47.1335 64.744C48.6064 64.2373 50.0461 63.6227 51.4783 62.9973C56.0728 60.9972 59.9028 57.9216 62.9123 53.7381C63.5876 52.7974 63.9648 51.7138 63.4857 50.49C63.2181 49.8108 63.0066 49.1072 62.7416 48.3255ZM64.4642 41.7053C61.3375 42.9021 58.4121 44.1339 55.4179 45.1421C49.618 47.0963 43.6474 48.2285 37.6183 49.056C37.4067 49.0857 37.0525 49.2663 37.0423 49.3983C36.943 50.7218 36.9022 52.0481 36.8461 53.3877C37.1162 53.3877 37.2437 53.4039 37.3634 53.3877C39.7715 52.9969 42.1822 52.6303 44.5827 52.1963C50.0411 51.2124 55.4153 49.8566 60.7438 48.2446C62.3568 47.7568 63.3405 47.0963 63.5774 45.2634C63.7329 44.0585 64.1559 42.894 64.4617 41.7053H64.4642ZM55.344 28.95C44.7177 34.3653 33.5028 37.0851 21.7757 36.7293C21.5132 37.8776 21.2635 38.9801 21.001 40.1338C21.1361 40.1338 21.3603 40.1419 21.5795 40.1338C24.4004 40.0125 27.2239 39.9289 30.0448 39.7564C35.7861 39.406 41.3795 38.2442 46.8353 36.3088C47.4928 36.0743 47.7604 35.7266 47.8011 35.023C47.8674 33.8451 48.4025 32.8855 49.3505 32.2951C50.8463 31.3598 52.4925 30.8935 54.238 31.0741C55.3109 31.1846 56.4576 31.1981 57.1635 32.3194L57.6374 32.0256C56.8577 30.9797 56.0906 29.9527 55.3465 28.9527L55.344 28.95ZM47.6329 41.964C46.7818 42.1797 45.9893 42.3657 45.2044 42.584C45.0261 42.6325 44.7942 42.7457 44.7203 42.8994C44.1163 44.1582 43.0333 44.7243 41.856 45.1421C40.3449 45.6785 38.7981 45.5437 37.1876 45.3523C37.1468 46.223 37.1086 47.0883 37.0627 48.1045C46.4353 46.7163 55.5428 44.8159 64.3317 40.8535C63.4908 40.3252 62.6601 40.0233 62.1402 39.4194C61.6025 38.7941 61.363 37.8803 61.0725 37.2603C57.4183 38.5919 53.8023 39.9289 50.171 41.2201C49.0447 41.619 49.0396 41.5624 48.9478 42.8239C48.879 43.77 48.7695 44.7162 48.6777 45.6623C47.5896 44.6407 47.9566 43.2363 47.6304 41.9613L47.6329 41.964ZM49.2103 40.1823C53.1703 39.1472 56.957 37.9342 60.596 36.3196C60.1959 34.7966 59.6786 33.4704 58.4452 32.5755C58.0503 32.8477 57.51 33.031 57.2705 33.4192C56.1467 35.2306 54.4648 35.9907 52.5689 36.3546C51.9268 36.4786 51.2387 36.3358 50.594 36.4544C50.2016 36.5244 49.5951 36.7967 49.5339 37.0878C49.3199 38.0663 49.3071 39.0933 49.2103 40.1877V40.1823ZM35.9466 53.6708C35.7427 52.0534 35.572 50.7138 35.4013 49.3687C34.4125 49.4792 33.5283 49.5682 32.644 49.6787C32.351 49.7164 31.9789 49.7056 31.7853 49.8862C29.6269 51.8863 27.0888 52.2529 24.3087 51.9214C24.2781 52.5225 24.245 53.1478 24.2016 53.9538C28.1591 53.8594 31.9891 53.7678 35.9466 53.6735V53.6708ZM22.6166 53.8756V50.1558C21.0469 50.0803 19.4389 50.0048 17.6246 49.9186C17.9329 51.0184 18.2107 52.0346 18.5139 53.04C18.5496 53.1586 18.728 53.288 18.8528 53.3096C20.0505 53.5036 21.2507 53.6735 22.6141 53.8756H22.6166ZM19.4619 55.0751C20.2951 56.3744 21.2482 57.3421 22.5478 58.0241V55.3177C21.526 55.2369 20.5525 55.1587 19.4619 55.0724V55.0751Z" fill="white"/>
<path d="M41.5451 11.9384C40.3678 11.7039 39.3307 12.0786 38.2579 12.4506C37.2335 12.8064 36.1403 13.0301 35.0649 13.1029C30.7354 13.3886 28.7121 15.8712 28.0164 20.4186C27.6928 22.5346 27.3972 24.6668 26.8977 26.7396C26.5307 28.2626 25.514 29.3651 24.0513 30.0524C24.4029 28.9527 24.8718 27.9715 25.0094 26.9418C25.2694 25.0037 25.305 23.036 25.4936 21.0844C25.6108 19.8579 25.7331 18.6126 26.0287 17.4265C26.7652 14.4614 28.7197 12.8684 31.4897 12.2403C33.2709 11.836 35.0369 11.4317 36.6907 10.5071C38.4184 9.53939 40.4672 10.2214 41.5477 11.9357L41.5451 11.9384Z" fill="white"/>
</svg>
